# xmcd
#
# Track frame offsets: 
#        150
#        13629
#        27350
#        39732
#        52805
#        66279
#        79159
#        93130
#        107465
#        119665
#        134186
#        144458
#        158277
#        171112
#        185870
#        199428
#        211513
#        225158
#        239134
#        252846
#        265783
#        278561
#        291741
#        305823
#        319335
#
# Disc length: 4418 seconds
#
# Revision: 0
# Processed by: cddbd v1.5.1PL0 Copyright (c) Steve Scherf et al.
# Submitted via: ExactAudioCopy v0.95a5
#
DISCID=71114019
DTITLE=Various Artist - Boppers and the Blues
DYEAR=1900
DGENRE=Blues
TTITLE0=Jay McShann - Hootie Blues
TTITLE1=Big Bill Broonzy - Why Did You Do That to Me?
TTITLE2=Albinia Jones - Albinia's Blues
TTITLE3=Wynonie Harris - Cock-a-Doodle Doo
TTITLE4=Yack Taylor - Things About Coming My Way
TTITLE5=Estelle Edson - Don't Drive This Jive Away
TTITLE6=Marion Abernathy - Baggin' the Boogie
TTITLE7=Wini Brown - Bow Legged Woman
TTITLE8=Dinah Washington - Walking Blues
TTITLE9=Big Bill Broonzy - You Got to Play Your Hand
TTITLE10=Rubberlegs Williams - 4-F Blues
TTITLE11=Jay McShann - One Woman's Man
TTITLE12=Wynonie Harris - Yonder Goes My Baby
TTITLE13=Thelma Love - No Good Man Blues
TTITLE14=Ivory Joe Hunter - We're Gonna Boogie
TTITLE15=Estelle Edson - Be-Baba-Le-Ba
TTITLE16=Wini Brown - No Good Woman Blues
TTITLE17=Helen Humes - Pleasing Man Blues
TTITLE18=Big Bill Broonzy - Just a Dream
TTITLE19=Albinia Jones - Salty Papa Blues
TTITLE20=Rubberlegs Williams - Bring It on Home
TTITLE21=Estelle Edson - I Changed the Lock
TTITLE22=Rabon Tarrant - Frisco Blues
TTITLE23=Wynonie Harris - Here Comes the Blues
TTITLE24=Rubberlegs Williams - What's the Matter Now
EXTD=
EXTT0=
EXTT1=
EXTT2=
EXTT3=
EXTT4=
EXTT5=
EXTT6=
EXTT7=
EXTT8=
EXTT9=
EXTT10=
EXTT11=
EXTT12=
EXTT13=
EXTT14=
EXTT15=
EXTT16=
EXTT17=
EXTT18=
EXTT19=
EXTT20=
EXTT21=
EXTT22=
EXTT23=
EXTT24=
PLAYORDER=
